<svg width="24" height="24" viewBox="0 0 24 24" fill="none" xmlns="http://www.w3.org/2000/svg">
<path d="M6.51602 8.57666H2.33691V21.9036H6.51602V8.57666Z" fill="#E5F437"/>
<path d="M17.821 8.28792C17.6669 8.26866 17.5032 8.25903 17.3395 8.2494C14.9996 8.15311 13.6804 9.53972 13.2182 10.1367C13.093 10.3004 13.0352 10.3967 13.0352 10.3967V8.61531H9.03906V21.9422H13.0352H13.2182C13.2182 20.5845 13.2182 19.2364 13.2182 17.8787C13.2182 17.1469 13.2182 16.415 13.2182 15.6832C13.2182 14.7781 13.1508 13.8151 13.6033 12.987C13.9885 12.2937 14.6818 11.947 15.4618 11.947C17.7728 11.947 17.821 14.0366 17.821 14.2292C17.821 14.2388 17.821 14.2484 17.821 14.2484V22H22.0001V13.3048C22.0001 10.3293 20.4883 8.57679 17.821 8.28792Z" fill="#E5F437"/>
<path d="M4.42657 6.85316C5.76674 6.85316 6.85316 5.76674 6.85316 4.42658C6.85316 3.08642 5.76674 2 4.42657 2C3.08641 2 2 3.08642 2 4.42658C2 5.76674 3.08641 6.85316 4.42657 6.85316Z" fill="#E5F437"/>
</svg>
